NotoSansLisu-Bold.ufo
<glyph name="hyphen" format="2">
  <advance width="332"/>
  <unicode hex="002D"/>
  <outline>
    <contour>
      <point x="35" y="207" type="line"/>
      <point x="297" y="207" type="line"/>
      <point x="297" y="330" type="line"/>
      <point x="35" y="330" type="line"/>
    </contour>
  </outline>
</glyph>
<glyph name="uni02BC" format="2">
  <advance width="291"/>
  <unicode hex="02BC"/>
  <note>
afii57929
</note>
  <outline>
    <contour>
      <point x="58" y="387" type="line"/>
      <point x="174" y="407"/>
      <point x="228" y="516"/>
      <point x="228" y="633" type="curve" smooth="yes"/>
      <point x="228" y="702"/>
      <point x="188" y="725"/>
      <point x="145" y="725" type="curve" smooth="yes"/>
      <point x="103" y="725"/>
      <point x="70" y="702"/>
      <point x="70" y="642" type="curve" smooth="yes"/>
      <point x="70" y="583"/>
      <point x="103" y="559"/>
      <point x="145" y="559" type="curve"/>
      <point x="153" y="559" type="line"/>
      <point x="141" y="505"/>
      <point x="110" y="466"/>
      <point x="58" y="448" type="curve"/>
    </contour>
  </outline>
</glyph>
<glyph name="uni02CD" format="2">
  <advance width="483"/>
  <unicode hex="02CD"/>
  <note>
uni02CD
</note>
  <outline>
    <contour>
      <point x="68" y="0" type="line"/>
      <point x="414" y="0" type="line"/>
      <point x="414" y="124" type="line"/>
      <point x="68" y="124" type="line"/>
    </contour>
  </outline>
</glyph>
<glyph name="hyphentwo" format="2">
  <advance width="332"/>
  <unicode hex="2010"/>
  <outline>
    <contour>
      <point x="35" y="209" type="line"/>
      <point x="297" y="209" type="line"/>
      <point x="297" y="333" type="line"/>
      <point x="35" y="333" type="line"/>
    </contour>
  </outline>
</glyph>
<glyph name="uni300A" format="2">
  <advance width="611"/>
  <unicode hex="300A"/>
  <outline>
    <contour>
      <point x="449" y="0" type="line"/>
      <point x="599" y="0" type="line"/>
      <point x="419" y="357" type="line"/>
      <point x="599" y="714" type="line"/>
      <point x="449" y="714" type="line"/>
      <point x="266" y="356" type="line"/>
    </contour>
    <contour>
      <point x="195" y="0" type="line"/>
      <point x="345" y="0" type="line"/>
      <point x="165" y="357" type="line"/>
      <point x="345" y="714" type="line"/>
      <point x="195" y="714" type="line"/>
      <point x="12" y="356" type="line"/>
    </contour>
  </outline>
</glyph>
<glyph name="uni300B" format="2">
  <advance width="611"/>
  <unicode hex="300B"/>
  <outline>
    <contour>
      <point x="266" y="0" type="line"/>
      <point x="416" y="0" type="line"/>
      <point x="599" y="356" type="line"/>
      <point x="416" y="714" type="line"/>
      <point x="266" y="714" type="line"/>
      <point x="446" y="357" type="line"/>
    </contour>
    <contour>
      <point x="12" y="0" type="line"/>
      <point x="162" y="0" type="line"/>
      <point x="345" y="356" type="line"/>
      <point x="162" y="714" type="line"/>
      <point x="12" y="714" type="line"/>
      <point x="192" y="357" type="line"/>
    </contour>
  </outline>
</glyph>
<glyph name="uniA4D0" format="2">
  <advance width="678"/>
  <unicode hex="A4D0"/>
  <outline>
    <contour>
      <point x="89" y="0" type="line"/>
      <point x="390" y="0" type="line" smooth="yes"/>
      <point x="522" y="0"/>
      <point x="628" y="70"/>
      <point x="628" y="196" type="curve" smooth="yes"/>
      <point x="628" y="312"/>
      <point x="556" y="359"/>
      <point x="476" y="374" type="curve"/>
      <point x="476" y="379" type="line"/>
      <point x="551" y="395"/>
      <point x="596" y="442"/>
      <point x="596" y="529" type="curve" smooth="yes"/>
      <point x="596" y="667"/>
      <point x="495" y="714"/>
      <point x="350" y="714" type="curve" smooth="yes"/>
      <point x="89" y="714" type="line"/>
    </contour>
    <contour>
      <point x="240" y="119" type="line"/>
      <point x="240" y="312" type="line"/>
      <point x="363" y="312" type="line"/>
      <point x="438" y="312"/>
      <point x="470" y="269"/>
      <point x="470" y="220" type="curve" smooth="yes"/>
      <point x="470" y="163"/>
      <point x="438" y="119"/>
      <point x="369" y="119" type="curve" smooth="yes"/>
    </contour>
    <contour>
      <point x="240" y="430" type="line"/>
      <point x="240" y="594" type="line"/>
      <point x="340" y="594" type="line" smooth="yes"/>
      <point x="409" y="594"/>
      <point x="438" y="563"/>
      <point x="438" y="513" type="curve" smooth="yes"/>
      <point x="438" y="465"/>
      <point x="412" y="430"/>
      <point x="336" y="430" type="curve" smooth="yes"/>
    </contour>
  </outline>
</glyph>
<glyph name="uniA4D1" format="2">
  <advance width="658"/>
  <unicode hex="A4D1"/>
  <outline>
    <contour>
      <point x="91" y="0" type="line"/>
      <point x="242" y="0" type="line"/>
      <point x="242" y="263" type="line"/>
      <point x="338" y="263" type="line" smooth="yes"/>
      <point x="530" y="263"/>
      <point x="609" y="377"/>
      <point x="609" y="493" type="curve" smooth="yes"/>
      <point x="609" y="609"/>
      <point x="539" y="714"/>
      <point x="344" y="714" type="curve" smooth="yes"/>
      <point x="91" y="714" type="line"/>
    </contour>
    <contour>
      <point x="242" y="386" type="line"/>
      <point x="242" y="590" type="line"/>
      <point x="344" y="590" type="line" smooth="yes"/>
      <point x="409" y="590"/>
      <point x="456" y="560"/>
      <point x="456" y="487" type="curve" smooth="yes"/>
      <point x="456" y="416"/>
      <point x="400" y="386"/>
      <point x="326" y="386" type="curve" smooth="yes"/>
    </contour>
  </outline>
</glyph>
<glyph name="uniA4D2" format="2">
  <advance width="659"/>
  <unicode hex="A4D2"/>
  <outline>
    <contour>
      <point x="314" y="0" type="curve" smooth="yes"/>
      <point x="567" y="0" type="line"/>
      <point x="567" y="714" type="line"/>
      <point x="416" y="714" type="line"/>
      <point x="416" y="451" type="line"/>
      <point x="320" y="451" type="line" smooth="yes"/>
      <point x="128" y="451"/>
      <point x="49" y="337"/>
      <point x="49" y="221" type="curve" smooth="yes"/>
      <point x="49" y="105"/>
      <point x="119" y="0"/>
    </contour>
    <contour>
      <point x="314" y="122" type="line" smooth="yes"/>
      <point x="249" y="122"/>
      <point x="202" y="153"/>
      <point x="202" y="227" type="curve" smooth="yes"/>
      <point x="202" y="299"/>
      <point x="258" y="330"/>
      <point x="332" y="330" type="curve" smooth="yes"/>
      <point x="416" y="330" type="line"/>
      <point x="416" y="122" type="line"/>
    </contour>
  </outline>
</glyph>
<glyph name="uniA4D3" format="2">
  <advance width="741"/>
  <unicode hex="A4D3"/>
  <outline>
    <contour>
      <point x="91" y="0" type="line"/>
      <point x="352" y="0" type="line" smooth="yes"/>
      <point x="571" y="0"/>
      <point x="693" y="148"/>
      <point x="693" y="363" type="curve" smooth="yes"/>
      <point x="693" y="586"/>
      <point x="559" y="714"/>
      <point x="355" y="714" type="curve" smooth="yes"/>
      <point x="91" y="714" type="line"/>
    </contour>
    <contour>
      <point x="242" y="123" type="line"/>
      <point x="242" y="591" type="line"/>
      <point x="338" y="591" type="line" smooth="yes"/>
      <point x="465" y="591"/>
      <point x="537" y="516"/>
      <point x="537" y="358" type="curve" smooth="yes"/>
      <point x="537" y="211"/>
      <point x="470" y="123"/>
      <point x="344" y="123" type="curve" smooth="yes"/>
    </contour>
  </outline>
</glyph>
<glyph name="uniA4D4" format="2">
  <advance width="573"/>
  <unicode hex="A4D4"/>
  <outline>
    <contour>
      <point x="211" y="0" type="line"/>
      <point x="362" y="0" type="line"/>
      <point x="362" y="588" type="line"/>
      <point x="567" y="588" type="line"/>
      <point x="567" y="714" type="line"/>
      <point x="6" y="714" type="line"/>
      <point x="6" y="588" type="line"/>
      <point x="211" y="588" type="line"/>
    </contour>
  </outline>
</glyph>
<glyph name="uniA4D5" format="2">
  <advance width="573"/>
  <unicode hex="A4D5"/>
  <outline>
    <contour>
      <point x="6" y="0" type="line"/>
      <point x="567" y="0" type="line"/>
      <point x="567" y="126" type="line"/>
      <point x="362" y="126" type="line"/>
      <point x="362" y="714" type="line"/>
      <point x="211" y="714" type="line"/>
      <point x="211" y="126" type="line"/>
      <point x="6" y="126" type="line"/>
    </contour>
  </outline>
</glyph>
<glyph name="uniA4D6" format="2">
  <advance width="736"/>
  <unicode hex="A4D6"/>
  <outline>
    <contour>
      <point x="419" y="-10" type="curve" smooth="yes"/>
      <point x="513" y="-10"/>
      <point x="591" y="2"/>
      <point x="667" y="27" type="curve"/>
      <point x="667" y="407" type="line"/>
      <point x="410" y="407" type="line"/>
      <point x="410" y="281" type="line"/>
      <point x="519" y="281" type="line"/>
      <point x="519" y="132" type="line"/>
      <point x="498" y="124"/>
      <point x="475" y="119"/>
      <point x="435" y="119" type="curve" smooth="yes"/>
      <point x="280" y="119"/>
      <point x="215" y="216"/>
      <point x="215" y="357" type="curve" smooth="yes"/>
      <point x="215" y="506"/>
      <point x="300" y="598"/>
      <point x="438" y="598" type="curve" smooth="yes"/>
      <point x="510" y="598"/>
      <point x="574" y="579"/>
      <point x="628" y="557" type="curve"/>
      <point x="662" y="682" type="line"/>
      <point x="598" y="708"/>
      <point x="527" y="724"/>
      <point x="443" y="724" type="curve" smooth="yes"/>
      <point x="203" y="724"/>
      <point x="59" y="580"/>
      <point x="59" y="357" type="curve" smooth="yes"/>
      <point x="59" y="131"/>
      <point x="186" y="-10"/>
    </contour>
  </outline>
</glyph>
<glyph name="uniA4D7" format="2">
  <advance width="661"/>
  <unicode hex="A4D7"/>
  <outline>
    <contour>
      <point x="91" y="0" type="line"/>
      <point x="242" y="0" type="line"/>
      <point x="242" y="281" type="line"/>
      <point x="271" y="311" type="line"/>
      <point x="483" y="0" type="line"/>
      <point x="663" y="0" type="line"/>
      <point x="381" y="400" type="line"/>
      <point x="652" y="714" type="line"/>
      <point x="474" y="714" type="line"/>
      <point x="297" y="500" type="line" smooth="yes"/>
      <point x="275" y="473"/>
      <point x="259" y="454"/>
      <point x="242" y="431" type="curve"/>
      <point x="241" y="714" type="line"/>
      <point x="91" y="714" type="line"/>
    </contour>
  </outline>
</glyph>
<glyph name="uniA4D8" format="2">
  <advance width="661"/>
  <unicode hex="A4D8"/>
  <outline>
    <contour>
      <point x="9" y="0" type="line"/>
      <point x="187" y="0" type="line"/>
      <point x="364" y="214" type="line" smooth="yes"/>
      <point x="386" y="241"/>
      <point x="402" y="260"/>
      <point x="419" y="283" type="curve"/>
      <point x="420" y="0" type="line"/>
      <point x="570" y="0" type="line"/>
      <point x="570" y="714" type="line"/>
      <point x="419" y="714" type="line"/>
      <point x="419" y="433" type="line"/>
      <point x="390" y="403" type="line"/>
      <point x="178" y="714" type="line"/>
      <point x="-2" y="714" type="line"/>
      <point x="280" y="314" type="line"/>
    </contour>
  </outline>
</glyph>
<glyph name="uniA4D9" format="2">
  <advance width="425"/>
  <unicode hex="A4D9"/>
  <outline>
    <contour>
      <point x="126" y="-10" type="curve" smooth="yes"/>
      <point x="248" y="-10"/>
      <point x="340" y="47"/>
      <point x="340" y="205" type="curve" smooth="yes"/>
      <point x="340" y="714" type="line"/>
      <point x="189" y="714" type="line"/>
      <point x="189" y="215" type="line" smooth="yes"/>
      <point x="189" y="137"/>
      <point x="150" y="120"/>
      <point x="100" y="120" type="curve" smooth="yes"/>
      <point x="73" y="120"/>
      <point x="43" y="126"/>
      <point x="16" y="135" type="curve"/>
      <point x="16" y="6" type="line"/>
      <point x="42" y="-4"/>
      <point x="87" y="-10"/>
    </contour>
  </outline>
</glyph>
<glyph name="uniA4DA" format="2">
  <advance width="645"/>
  <unicode hex="A4DA"/>
  <outline>
    <contour>
      <point x="407" y="-10" type="curve" smooth="yes"/>
      <point x="486" y="-10"/>
      <point x="538" y="-1"/>
      <point x="591" y="19" type="curve"/>
      <point x="591" y="147" type="line"/>
      <point x="537" y="130"/>
      <point x="482" y="117"/>
      <point x="420" y="117" type="curve" smooth="yes"/>
      <point x="284" y="117"/>
      <point x="215" y="210"/>
      <point x="215" y="357" type="curve" smooth="yes"/>
      <point x="215" y="507"/>
      <point x="293" y="598"/>
      <point x="421" y="598" type="curve" smooth="yes"/>
      <point x="485" y="598"/>
      <point x="539" y="578"/>
      <point x="583" y="556" type="curve"/>
      <point x="619" y="682" type="line"/>
      <point x="565" y="709"/>
      <point x="495" y="724"/>
      <point x="422" y="724" type="curve" smooth="yes"/>
      <point x="188" y="724"/>
      <point x="59" y="574"/>
      <point x="59" y="358" type="curve" smooth="yes"/>
      <point x="59" y="133"/>
      <point x="175" y="-10"/>
    </contour>
  </outline>
</glyph>
<glyph name="uniA4DB" format="2">
  <advance width="645"/>
  <unicode hex="A4DB"/>
  <outline>
    <contour>
      <point x="26" y="32" type="line"/>
      <point x="80" y="5"/>
      <point x="150" y="-10"/>
      <point x="223" y="-10" type="curve" smooth="yes"/>
      <point x="457" y="-10"/>
      <point x="586" y="140"/>
      <point x="586" y="356" type="curve" smooth="yes"/>
      <point x="586" y="581"/>
      <point x="470" y="724"/>
      <point x="238" y="724" type="curve" smooth="yes"/>
      <point x="159" y="724"/>
      <point x="107" y="715"/>
      <point x="54" y="695" type="curve"/>
      <point x="54" y="567" type="line"/>
      <point x="108" y="585"/>
      <point x="163" y="598"/>
      <point x="225" y="598" type="curve" smooth="yes"/>
      <point x="361" y="598"/>
      <point x="430" y="505"/>
      <point x="430" y="357" type="curve" smooth="yes"/>
      <point x="430" y="207"/>
      <point x="352" y="116"/>
      <point x="224" y="116" type="curve" smooth="yes"/>
      <point x="160" y="116"/>
      <point x="106" y="136"/>
      <point x="62" y="158" type="curve"/>
    </contour>
  </outline>
</glyph>
<glyph name="uniA4DC" format="2">
  <advance width="588"/>
  <unicode hex="A4DC"/>
  <outline>
    <contour>
      <point x="26" y="0" type="line"/>
      <point x="561" y="0" type="line"/>
      <point x="561" y="126" type="line"/>
      <point x="203" y="126" type="line"/>
      <point x="551" y="608" type="line"/>
      <point x="551" y="714" type="line"/>
      <point x="38" y="714" type="line"/>
      <point x="38" y="589" type="line"/>
      <point x="374" y="589" type="line"/>
      <point x="26" y="107" type="line"/>
    </contour>
  </outline>
</glyph>
<glyph name="uniA4DD" format="2">
  <advance width="596"/>
  <unicode hex="A4DD"/>
  <outline>
    <contour>
      <point x="90" y="0" type="line"/>
      <point x="241" y="0" type="line"/>
      <point x="241" y="288" type="line"/>
      <point x="531" y="288" type="line"/>
      <point x="531" y="412" type="line"/>
      <point x="241" y="412" type="line"/>
      <point x="241" y="582" type="line"/>
      <point x="554" y="582" type="line"/>
      <point x="554" y="714" type="line"/>
      <point x="90" y="714" type="line"/>
    </contour>
  </outline>
</glyph>
<glyph name="uniA4DE" format="2">
  <advance width="596"/>
  <unicode hex="A4DE"/>
  <outline>
    <contour>
      <point x="42" y="0" type="line"/>
      <point x="506" y="0" type="line"/>
      <point x="506" y="714" type="line"/>
      <point x="355" y="714" type="line"/>
      <point x="355" y="426" type="line"/>
      <point x="65" y="426" type="line"/>
      <point x="65" y="302" type="line"/>
      <point x="355" y="302" type="line"/>
      <point x="355" y="132" type="line"/>
      <point x="42" y="132" type="line"/>
    </contour>
  </outline>
</glyph>
<glyph name="uniA4DF" format="2">
  <advance width="973"/>
  <unicode hex="A4DF"/>
  <outline>
    <contour>
      <point x="90" y="0" type="line"/>
      <point x="225" y="0" type="line"/>
      <point x="225" y="393" type="line" smooth="yes"/>
      <point x="226" y="437"/>
      <point x="221" y="509"/>
      <point x="221" y="576" type="curve"/>
      <point x="225" y="576" type="line"/>
      <point x="428" y="0" type="line"/>
      <point x="533" y="0" type="line"/>
      <point x="739" y="575" type="line"/>
      <point x="743" y="575" type="line"/>
      <point x="742" y="534"/>
      <point x="740" y="465"/>
      <point x="740" y="399" type="curve" smooth="yes"/>
      <point x="740" y="0" type="line"/>
      <point x="883" y="0" type="line"/>
      <point x="883" y="714" type="line"/>
      <point x="667" y="714" type="line"/>
      <point x="485" y="204" type="line"/>
      <point x="481" y="204" type="line"/>
      <point x="304" y="714" type="line"/>
      <point x="90" y="714" type="line"/>
    </contour>
  </outline>
</glyph>
<glyph name="uniA4E0" format="2">
  <advance width="770"/>
  <unicode hex="A4E0"/>
  <outline>
    <contour>
      <point x="90" y="0" type="line"/>
      <point x="224" y="0" type="line"/>
      <point x="224" y="319" type="line" smooth="yes"/>
      <point x="224" y="385"/>
      <point x="222" y="436"/>
      <point x="219" y="483" type="curve"/>
      <point x="223" y="483" type="line"/>
      <point x="524" y="0" type="line"/>
      <point x="680" y="0" type="line"/>
      <point x="680" y="714" type="line"/>
      <point x="545" y="714" type="line"/>
      <point x="545" y="391" type="line" smooth="yes"/>
      <point x="545" y="337"/>
      <point x="548" y="273"/>
      <point x="549" y="233" type="curve"/>
      <point x="546" y="233" type="line"/>
      <point x="524" y="271"/>
      <point x="267" y="680"/>
      <point x="248" y="714" type="curve"/>
      <point x="90" y="714" type="line"/>
    </contour>
  </outline>
</glyph>
<glyph name="uniA4E1" format="2">
  <advance width="556"/>
  <unicode hex="A4E1"/>
  <outline>
    <contour>
      <point x="90" y="0" type="line"/>
      <point x="522" y="0" type="line"/>
      <point x="522" y="126" type="line"/>
      <point x="241" y="126" type="line"/>
      <point x="241" y="714" type="line"/>
      <point x="90" y="714" type="line"/>
    </contour>
  </outline>
</glyph>
<glyph name="uniA4E2" format="2">
  <advance width="568"/>
  <unicode hex="A4E2"/>
  <outline>
    <contour>
      <point x="45" y="24" type="line"/>
      <point x="85" y="6"/>
      <point x="166" y="-10"/>
      <point x="249" y="-10" type="curve" smooth="yes"/>
      <point x="429" y="-10"/>
      <point x="529" y="65"/>
      <point x="529" y="205" type="curve" smooth="yes"/>
      <point x="529" y="286"/>
      <point x="490" y="349"/>
      <point x="373" y="405" type="curve" smooth="yes"/>
      <point x="306" y="437"/>
      <point x="305" y="438"/>
      <point x="281" y="450" type="curve" smooth="yes"/>
      <point x="231" y="476"/>
      <point x="200" y="502"/>
      <point x="200" y="536" type="curve" smooth="yes"/>
      <point x="200" y="577"/>
      <point x="241" y="598"/>
      <point x="301" y="598" type="curve" smooth="yes"/>
      <point x="360" y="598"/>
      <point x="425" y="578"/>
      <point x="475" y="552" type="curve"/>
      <point x="503" y="684" type="line"/>
      <point x="452" y="707"/>
      <point x="370" y="724"/>
      <point x="298" y="724" type="curve" smooth="yes"/>
      <point x="136" y="724"/>
      <point x="48" y="638"/>
      <point x="48" y="516" type="curve" smooth="yes"/>
      <point x="48" y="385"/>
      <point x="150" y="349"/>
      <point x="250" y="305" type="curve" smooth="yes"/>
      <point x="318" y="275"/>
      <point x="369" y="243"/>
      <point x="369" y="191" type="curve" smooth="yes"/>
      <point x="369" y="145"/>
      <point x="330" y="116"/>
      <point x="252" y="116" type="curve" smooth="yes"/>
      <point x="176" y="116"/>
      <point x="96" y="141"/>
      <point x="45" y="165" type="curve"/>
    </contour>
  </outline>
</glyph>
<glyph name="uniA4E3" format="2">
  <advance width="657"/>
  <unicode hex="A4E3"/>
  <outline>
    <contour>
      <point x="90" y="0" type="line"/>
      <point x="240" y="0" type="line"/>
      <point x="240" y="275" type="line"/>
      <point x="346" y="275" type="line"/>
      <point x="490" y="0" type="line"/>
      <point x="655" y="0" type="line"/>
      <point x="648" y="10"/>
      <point x="496" y="274"/>
      <point x="478" y="306" type="curve"/>
      <point x="561" y="346"/>
      <point x="608" y="420"/>
      <point x="608" y="494" type="curve" smooth="yes"/>
      <point x="608" y="609"/>
      <point x="538" y="714"/>
      <point x="343" y="714" type="curve" smooth="yes"/>
      <point x="90" y="714" type="line"/>
    </contour>
    <contour>
      <point x="325" y="398" type="curve" smooth="yes"/>
      <point x="240" y="398" type="line"/>
      <point x="240" y="592" type="line"/>
      <point x="343" y="592" type="line" smooth="yes"/>
      <point x="409" y="592"/>
      <point x="455" y="561"/>
      <point x="455" y="487" type="curve" smooth="yes"/>
      <point x="455" y="425"/>
      <point x="400" y="398"/>
    </contour>
  </outline>
</glyph>
<glyph name="uniA4E4" format="2">
  <advance width="657"/>
  <unicode hex="A4E4"/>
  <outline>
    <contour>
      <point x="314" y="0" type="curve" smooth="yes"/>
      <point x="567" y="0" type="line"/>
      <point x="567" y="714" type="line"/>
      <point x="416" y="714" type="line"/>
      <point x="416" y="439" type="line"/>
      <point x="311" y="439" type="line"/>
      <point x="167" y="714" type="line"/>
      <point x="2" y="714" type="line"/>
      <point x="9" y="704"/>
      <point x="161" y="440"/>
      <point x="179" y="408" type="curve"/>
      <point x="96" y="368"/>
      <point x="49" y="294"/>
      <point x="49" y="220" type="curve" smooth="yes"/>
      <point x="49" y="105"/>
      <point x="119" y="0"/>
    </contour>
    <contour>
      <point x="314" y="122" type="line" smooth="yes"/>
      <point x="248" y="122"/>
      <point x="202" y="153"/>
      <point x="202" y="227" type="curve" smooth="yes"/>
      <point x="202" y="289"/>
      <point x="257" y="316"/>
      <point x="332" y="316" type="curve" smooth="yes"/>
      <point x="416" y="316" type="line"/>
      <point x="416" y="122" type="line"/>
    </contour>
  </outline>
</glyph>
<glyph name="uniA4E5" format="2">
  <advance width="640"/>
  <unicode hex="A4E5"/>
  <outline>
    <contour>
      <point x="0" y="0" type="line"/>
      <point x="155" y="0" type="line"/>
      <point x="284" y="394" type="line" smooth="yes"/>
      <point x="294" y="425"/>
      <point x="310" y="475"/>
      <point x="320" y="519" type="curve"/>
      <point x="331" y="477"/>
      <point x="346" y="427"/>
      <point x="357" y="392" type="curve" smooth="yes"/>
      <point x="484" y="0" type="line"/>
      <point x="640" y="0" type="line"/>
      <point x="387" y="714" type="line"/>
      <point x="255" y="714" type="line"/>
    </contour>
  </outline>
</glyph>
<glyph name="uniA4E6" format="2">
  <advance width="640"/>
  <unicode hex="A4E6"/>
  <outline>
    <contour>
      <point x="253" y="0" type="line"/>
      <point x="385" y="0" type="line"/>
      <point x="640" y="714" type="line"/>
      <point x="484" y="714" type="line"/>
      <point x="357" y="322" type="line" smooth="yes"/>
      <point x="346" y="287"/>
      <point x="331" y="237"/>
      <point x="320" y="195" type="curve"/>
      <point x="310" y="239"/>
      <point x="294" y="289"/>
      <point x="284" y="320" type="curve" smooth="yes"/>
      <point x="155" y="714" type="line"/>
      <point x="0" y="714" type="line"/>
    </contour>
  </outline>
</glyph>
<glyph name="uniA4E7" format="2">
  <advance width="766"/>
  <unicode hex="A4E7"/>
  <outline>
    <contour>
      <point x="90" y="0" type="line"/>
      <point x="241" y="0" type="line"/>
      <point x="241" y="310" type="line"/>
      <point x="525" y="310" type="line"/>
      <point x="525" y="0" type="line"/>
      <point x="676" y="0" type="line"/>
      <point x="676" y="714" type="line"/>
      <point x="525" y="714" type="line"/>
      <point x="525" y="436" type="line"/>
      <point x="241" y="436" type="line"/>
      <point x="241" y="714" type="line"/>
      <point x="90" y="714" type="line"/>
    </contour>
  </outline>
</glyph>
<glyph name="uniA4E8" format="2">
  <advance width="743"/>
  <unicode hex="A4E8"/>
  <outline>
    <contour>
      <point x="82" y="32" type="line"/>
      <point x="146" y="6"/>
      <point x="217" y="-10"/>
      <point x="301" y="-10" type="curve" smooth="yes"/>
      <point x="541" y="-10"/>
      <point x="685" y="134"/>
      <point x="685" y="357" type="curve" smooth="yes"/>
      <point x="685" y="583"/>
      <point x="558" y="724"/>
      <point x="325" y="724" type="curve" smooth="yes"/>
      <point x="231" y="724"/>
      <point x="153" y="712"/>
      <point x="77" y="687" type="curve"/>
      <point x="77" y="307" type="line"/>
      <point x="334" y="307" type="line"/>
      <point x="334" y="433" type="line"/>
      <point x="225" y="433" type="line"/>
      <point x="225" y="584" type="line"/>
      <point x="246" y="590"/>
      <point x="269" y="595"/>
      <point x="309" y="595" type="curve" smooth="yes"/>
      <point x="464" y="595"/>
      <point x="529" y="498"/>
      <point x="529" y="357" type="curve" smooth="yes"/>
      <point x="529" y="208"/>
      <point x="444" y="116"/>
      <point x="306" y="116" type="curve" smooth="yes"/>
      <point x="234" y="116"/>
      <point x="170" y="135"/>
      <point x="116" y="157" type="curve"/>
    </contour>
  </outline>
</glyph>
<glyph name="uniA4E9" format="2">
  <advance width="425"/>
  <unicode hex="A4E9"/>
  <outline>
    <contour>
      <point x="85" y="0" type="line"/>
      <point x="236" y="0" type="line"/>
      <point x="236" y="499" type="line" smooth="yes"/>
      <point x="236" y="577"/>
      <point x="275" y="595"/>
      <point x="325" y="595" type="curve" smooth="yes"/>
      <point x="352" y="595"/>
      <point x="382" y="589"/>
      <point x="409" y="579" type="curve"/>
      <point x="409" y="708" type="line"/>
      <point x="383" y="718"/>
      <point x="338" y="724"/>
      <point x="299" y="724" type="curve" smooth="yes"/>
      <point x="177" y="724"/>
      <point x="85" y="667"/>
      <point x="85" y="509" type="curve" smooth="yes"/>
    </contour>
  </outline>
</glyph>
<glyph name="uniA4EA" format="2">
  <advance width="994"/>
  <unicode hex="A4EA"/>
  <outline>
    <contour>
      <point x="209" y="0" type="curve"/>
      <point x="381" y="0" type="line"/>
      <point x="481" y="432" type="line" smooth="yes"/>
      <point x="485" y="449"/>
      <point x="495" y="519"/>
      <point x="497" y="533" type="curve"/>
      <point x="500" y="519"/>
      <point x="512" y="450"/>
      <point x="517" y="432" type="curve" smooth="yes"/>
      <point x="628" y="0" type="line"/>
      <point x="797" y="0" type="line"/>
      <point x="992" y="714" type="line"/>
      <point x="843" y="714" type="line"/>
      <point x="734" y="281" type="line" smooth="yes"/>
      <point x="723" y="237"/>
      <point x="713" y="196"/>
      <point x="705" y="159" type="curve"/>
      <point x="697" y="196"/>
      <point x="685" y="239"/>
      <point x="675" y="282" type="curve" smooth="yes"/>
      <point x="572" y="714" type="line"/>
      <point x="422" y="714" type="line"/>
      <point x="327" y="285" type="line" smooth="yes"/>
      <point x="318" y="246"/>
      <point x="307" y="201"/>
      <point x="299" y="159" type="curve"/>
      <point x="292" y="199"/>
      <point x="280" y="239"/>
      <point x="269" y="280" type="curve" smooth="yes"/>
      <point x="152" y="714" type="line"/>
      <point x="2" y="714" type="line"/>
      <point x="63" y="500"/>
      <point x="147" y="214"/>
    </contour>
  </outline>
</glyph>
<glyph name="uniA4EB" format="2">
  <advance width="658"/>
  <unicode hex="A4EB"/>
  <outline>
    <contour>
      <point x="0" y="0" type="line"/>
      <point x="165" y="0" type="line"/>
      <point x="327" y="273" type="line"/>
      <point x="493" y="0" type="line"/>
      <point x="658" y="0" type="line"/>
      <point x="423" y="368" type="line"/>
      <point x="641" y="714" type="line"/>
      <point x="475" y="714" type="line"/>
      <point x="330" y="470" type="line"/>
      <point x="182" y="714" type="line"/>
      <point x="15" y="714" type="line"/>
      <point x="234" y="374" type="line"/>
    </contour>
  </outline>
</glyph>
<glyph name="uniA4EC" format="2">
  <advance width="626"/>
  <unicode hex="A4EC"/>
  <outline>
    <contour>
      <point x="236" y="0" type="line"/>
      <point x="387" y="0" type="line"/>
      <point x="387" y="275" type="line"/>
      <point x="626" y="714" type="line"/>
      <point x="461" y="714" type="line"/>
      <point x="313" y="419" type="line"/>
      <point x="167" y="714" type="line"/>
      <point x="0" y="714" type="line"/>
      <point x="236" y="285" type="line"/>
    </contour>
  </outline>
</glyph>
<glyph name="uniA4ED" format="2">
  <advance width="678"/>
  <unicode hex="A4ED"/>
  <outline>
    <contour>
      <point x="288" y="0" type="curve" smooth="yes"/>
      <point x="589" y="0" type="line"/>
      <point x="589" y="714" type="line"/>
      <point x="328" y="714" type="line" smooth="yes"/>
      <point x="183" y="714"/>
      <point x="82" y="667"/>
      <point x="82" y="529" type="curve" smooth="yes"/>
      <point x="82" y="442"/>
      <point x="127" y="395"/>
      <point x="202" y="379" type="curve"/>
      <point x="202" y="374" type="line"/>
      <point x="122" y="359"/>
      <point x="50" y="312"/>
      <point x="50" y="196" type="curve" smooth="yes"/>
      <point x="50" y="70"/>
      <point x="156" y="0"/>
    </contour>
    <contour>
      <point x="309" y="119" type="line" smooth="yes"/>
      <point x="239" y="119"/>
      <point x="206" y="163"/>
      <point x="206" y="220" type="curve" smooth="yes"/>
      <point x="206" y="269"/>
      <point x="238" y="312"/>
      <point x="315" y="312" type="curve"/>
      <point x="438" y="312" type="line"/>
      <point x="438" y="119" type="line"/>
    </contour>
    <contour>
      <point x="342" y="430" type="line" smooth="yes"/>
      <point x="264" y="430"/>
      <point x="237" y="465"/>
      <point x="237" y="513" type="curve" smooth="yes"/>
      <point x="237" y="563"/>
      <point x="267" y="594"/>
      <point x="338" y="594" type="curve" smooth="yes"/>
      <point x="438" y="594" type="line"/>
      <point x="438" y="430" type="line"/>
    </contour>
  </outline>
</glyph>
<glyph name="uniA4EE" format="2">
  <advance width="708"/>
  <unicode hex="A4EE"/>
  <outline>
    <contour>
      <point x="0" y="0" type="line"/>
      <point x="153" y="0" type="line"/>
      <point x="215" y="164" type="line"/>
      <point x="488" y="164" type="line"/>
      <point x="550" y="0" type="line"/>
      <point x="708" y="0" type="line"/>
      <point x="439" y="717" type="line"/>
      <point x="273" y="717" type="line"/>
    </contour>
    <contour>
      <point x="259" y="281" type="line"/>
      <point x="323" y="462" type="line" smooth="yes"/>
      <point x="330" y="482"/>
      <point x="341" y="513"/>
      <point x="355" y="554" type="curve"/>
      <point x="364" y="528"/>
      <point x="378" y="486"/>
      <point x="386" y="463" type="curve" smooth="yes"/>
      <point x="450" y="281" type="line"/>
    </contour>
  </outline>
</glyph>
<glyph name="uniA4EF" format="2">
  <advance width="708"/>
  <unicode hex="A4EF"/>
  <outline>
    <contour>
      <point x="270" y="0" type="line"/>
      <point x="442" y="0" type="line"/>
      <point x="708" y="717" type="line"/>
      <point x="550" y="717" type="line"/>
      <point x="475" y="519" type="line"/>
      <point x="227" y="519" type="line"/>
      <point x="153" y="717" type="line"/>
      <point x="0" y="717" type="line"/>
    </contour>
    <contour>
      <point x="355" y="163" type="curve"/>
      <point x="341" y="204"/>
      <point x="330" y="235"/>
      <point x="323" y="255" type="curve" smooth="yes"/>
      <point x="271" y="402" type="line"/>
      <point x="438" y="402" type="line"/>
      <point x="386" y="254" type="line" smooth="yes"/>
      <point x="378" y="231"/>
      <point x="364" y="189"/>
    </contour>
  </outline>
</glyph>
<glyph name="uniA4F0" format="2">
  <advance width="611"/>
  <unicode hex="A4F0"/>
  <outline>
    <contour>
      <point x="90" y="0" type="line"/>
      <point x="554" y="0" type="line"/>
      <point x="554" y="125" type="line"/>
      <point x="241" y="125" type="line"/>
      <point x="241" y="290" type="line"/>
      <point x="530" y="290" type="line"/>
      <point x="530" y="414" type="line"/>
      <point x="241" y="414" type="line"/>
      <point x="241" y="590" type="line"/>
      <point x="554" y="590" type="line"/>
      <point x="554" y="714" type="line"/>
      <point x="90" y="714" type="line"/>
    </contour>
  </outline>
</glyph>
<glyph name="uniA4F1" format="2">
  <advance width="611"/>
  <unicode hex="A4F1"/>
  <outline>
    <contour>
      <point x="57" y="0" type="line"/>
      <point x="521" y="0" type="line"/>
      <point x="521" y="714" type="line"/>
      <point x="57" y="714" type="line"/>
      <point x="57" y="589" type="line"/>
      <point x="370" y="589" type="line"/>
      <point x="370" y="424" type="line"/>
      <point x="81" y="424" type="line"/>
      <point x="81" y="300" type="line"/>
      <point x="370" y="300" type="line"/>
      <point x="370" y="124" type="line"/>
      <point x="57" y="124" type="line"/>
    </contour>
  </outline>
</glyph>
<glyph name="uniA4F2" format="2">
  <advance width="331"/>
  <unicode hex="A4F2"/>
  <outline>
    <contour>
      <point x="90" y="0" type="line"/>
      <point x="241" y="0" type="line"/>
      <point x="241" y="714" type="line"/>
      <point x="90" y="714" type="line"/>
    </contour>
  </outline>
</glyph>
<glyph name="uniA4F3" format="2">
  <advance width="799"/>
  <unicode hex="A4F3"/>
  <outline>
    <contour>
      <point x="400" y="-10" type="curve" smooth="yes"/>
      <point x="618" y="-10"/>
      <point x="741" y="142"/>
      <point x="741" y="358" type="curve" smooth="yes"/>
      <point x="741" y="575"/>
      <point x="618" y="725"/>
      <point x="401" y="725" type="curve" smooth="yes"/>
      <point x="174" y="725"/>
      <point x="58" y="573"/>
      <point x="58" y="359" type="curve" smooth="yes"/>
      <point x="58" y="143"/>
      <point x="174" y="-10"/>
    </contour>
    <contour>
      <point x="400" y="118" type="curve" smooth="yes"/>
      <point x="277" y="118"/>
      <point x="214" y="213"/>
      <point x="214" y="358" type="curve" smooth="yes"/>
      <point x="214" y="503"/>
      <point x="277" y="596"/>
      <point x="401" y="596" type="curve" smooth="yes"/>
      <point x="524" y="596"/>
      <point x="585" y="503"/>
      <point x="585" y="358" type="curve" smooth="yes"/>
      <point x="585" y="213"/>
      <point x="524" y="118"/>
    </contour>
  </outline>
</glyph>
<glyph name="uniA4F4" format="2">
  <advance width="791"/>
  <unicode hex="A4F4"/>
  <outline>
    <contour>
      <point x="399" y="-10" type="curve" smooth="yes"/>
      <point x="602" y="-10"/>
      <point x="707" y="115"/>
      <point x="707" y="292" type="curve" smooth="yes"/>
      <point x="707" y="714" type="line"/>
      <point x="556" y="714" type="line"/>
      <point x="556" y="292" type="line" smooth="yes"/>
      <point x="556" y="187"/>
      <point x="498" y="117"/>
      <point x="402" y="117" type="curve" smooth="yes"/>
      <point x="300" y="117"/>
      <point x="234" y="175"/>
      <point x="234" y="291" type="curve" smooth="yes"/>
      <point x="234" y="714" type="line"/>
      <point x="83" y="714" type="line"/>
      <point x="83" y="294" type="line" smooth="yes"/>
      <point x="83" y="106"/>
      <point x="197" y="-10"/>
    </contour>
  </outline>
</glyph>
<glyph name="uniA4F5" format="2">
  <advance width="791"/>
  <unicode hex="A4F5"/>
  <outline>
    <contour>
      <point x="84" y="0" type="line"/>
      <point x="235" y="0" type="line"/>
      <point x="235" y="423" type="line" smooth="yes"/>
      <point x="235" y="539"/>
      <point x="301" y="597"/>
      <point x="403" y="597" type="curve" smooth="yes"/>
      <point x="499" y="597"/>
      <point x="557" y="527"/>
      <point x="557" y="422" type="curve" smooth="yes"/>
      <point x="557" y="0" type="line"/>
      <point x="708" y="0" type="line"/>
      <point x="708" y="422" type="line" smooth="yes"/>
      <point x="708" y="599"/>
      <point x="603" y="724"/>
      <point x="400" y="724" type="curve" smooth="yes"/>
      <point x="198" y="724"/>
      <point x="84" y="608"/>
      <point x="84" y="420" type="curve" smooth="yes"/>
    </contour>
  </outline>
</glyph>
<glyph name="uniA4F6" format="2">
  <advance width="555"/>
  <unicode hex="A4F6"/>
  <outline>
    <contour>
      <point x="314" y="0" type="line"/>
      <point x="465" y="0" type="line"/>
      <point x="465" y="714" type="line"/>
      <point x="33" y="714" type="line"/>
      <point x="33" y="589" type="line"/>
      <point x="314" y="589" type="line"/>
    </contour>
  </outline>
</glyph>
<glyph name="uniA4F7" format="2">
  <advance width="749"/>
  <unicode hex="A4F7"/>
  <outline>
    <contour>
      <point x="395" y="0" type="curve"/>
      <point x="659" y="0" type="line"/>
      <point x="659" y="714" type="line"/>
      <point x="398" y="714" type="line"/>
      <point x="179" y="714"/>
      <point x="57" y="566"/>
      <point x="57" y="351" type="curve"/>
      <point x="57" y="128"/>
      <point x="191" y="0"/>
    </contour>
    <contour>
      <point x="412" y="123" type="line"/>
      <point x="285" y="123"/>
      <point x="213" y="198"/>
      <point x="213" y="356" type="curve"/>
      <point x="213" y="503"/>
      <point x="280" y="591"/>
      <point x="406" y="591" type="curve"/>
      <point x="508" y="591" type="line"/>
      <point x="508" y="123" type="line"/>
    </contour>
  </outline>
</glyph>
<glyph name="uniA4F8" format="2">
  <advance width="313"/>
  <unicode hex="A4F8"/>
  <outline>
    <contour>
      <point x="155" y="-10" type="curve" smooth="yes"/>
      <point x="197" y="-10"/>
      <point x="233" y="15"/>
      <point x="233" y="74" type="curve" smooth="yes"/>
      <point x="233" y="134"/>
      <point x="197" y="157"/>
      <point x="155" y="157" type="curve" smooth="yes"/>
      <point x="113" y="157"/>
      <point x="80" y="134"/>
      <point x="80" y="74" type="curve" smooth="yes"/>
      <point x="80" y="15"/>
      <point x="113" y="-10"/>
    </contour>
  </outline>
</glyph>
<glyph name="uniA4F9" format="2">
  <advance width="321"/>
  <unicode hex="A4F9"/>
  <outline>
    <contour>
      <point x="72" y="-181" type="line"/>
      <point x="188" y="-160"/>
      <point x="242" y="-52"/>
      <point x="242" y="67" type="curve" smooth="yes"/>
      <point x="242" y="134"/>
      <point x="202" y="157"/>
      <point x="159" y="157" type="curve" smooth="yes"/>
      <point x="117" y="157"/>
      <point x="84" y="134"/>
      <point x="84" y="74" type="curve" smooth="yes"/>
      <point x="84" y="15"/>
      <point x="117" y="-9"/>
      <point x="159" y="-9" type="curve" smooth="yes"/>
      <point x="161" y="-9"/>
      <point x="165" y="-9"/>
      <point x="167" y="-9" type="curve"/>
      <point x="155" y="-63"/>
      <point x="124" y="-102"/>
      <point x="72" y="-120" type="curve"/>
    </contour>
  </outline>
</glyph>
<glyph name="uniA4FA" format="2">
  <advance width="554"/>
  <unicode hex="A4FA"/>
  <outline>
    <contour>
      <point x="394" y="-10" type="curve" smooth="yes"/>
      <point x="436" y="-10"/>
      <point x="472" y="15"/>
      <point x="472" y="74" type="curve" smooth="yes"/>
      <point x="472" y="134"/>
      <point x="436" y="157"/>
      <point x="394" y="157" type="curve" smooth="yes"/>
      <point x="352" y="157"/>
      <point x="319" y="134"/>
      <point x="319" y="74" type="curve" smooth="yes"/>
      <point x="319" y="15"/>
      <point x="352" y="-10"/>
    </contour>
    <contour>
      <point x="157" y="-10" type="curve" smooth="yes"/>
      <point x="199" y="-10"/>
      <point x="235" y="15"/>
      <point x="235" y="74" type="curve" smooth="yes"/>
      <point x="235" y="134"/>
      <point x="199" y="157"/>
      <point x="157" y="157" type="curve" smooth="yes"/>
      <point x="115" y="157"/>
      <point x="82" y="134"/>
      <point x="82" y="74" type="curve" smooth="yes"/>
      <point x="82" y="15"/>
      <point x="115" y="-10"/>
    </contour>
  </outline>
</glyph>
<glyph name="uniA4FB" format="2">
  <advance width="556"/>
  <unicode hex="A4FB"/>
  <outline>
    <contour>
      <point x="157" y="-10" type="curve" smooth="yes"/>
      <point x="199" y="-10"/>
      <point x="235" y="15"/>
      <point x="235" y="74" type="curve" smooth="yes"/>
      <point x="235" y="134"/>
      <point x="199" y="157"/>
      <point x="157" y="157" type="curve" smooth="yes"/>
      <point x="115" y="157"/>
      <point x="82" y="134"/>
      <point x="82" y="74" type="curve" smooth="yes"/>
      <point x="82" y="15"/>
      <point x="115" y="-10"/>
    </contour>
    <contour>
      <point x="307" y="-181" type="line"/>
      <point x="425" y="-160"/>
      <point x="478" y="-52"/>
      <point x="478" y="61" type="curve" smooth="yes"/>
      <point x="478" y="134"/>
      <point x="437" y="157"/>
      <point x="394" y="157" type="curve" smooth="yes"/>
      <point x="352" y="157"/>
      <point x="319" y="134"/>
      <point x="319" y="74" type="curve" smooth="yes"/>
      <point x="319" y="15"/>
      <point x="352" y="-9"/>
      <point x="394" y="-9" type="curve" smooth="yes"/>
      <point x="396" y="-9"/>
      <point x="400" y="-9"/>
      <point x="402" y="-9" type="curve"/>
      <point x="390" y="-63"/>
      <point x="359" y="-102"/>
      <point x="307" y="-120" type="curve"/>
    </contour>
  </outline>
</glyph>
<glyph name="uniA4FC" format="2">
  <advance width="321"/>
  <unicode hex="A4FC"/>
  <outline>
    <contour>
      <point x="158" y="380" type="curve" smooth="yes"/>
      <point x="200" y="380"/>
      <point x="236" y="405"/>
      <point x="236" y="464" type="curve" smooth="yes"/>
      <point x="236" y="524"/>
      <point x="200" y="547"/>
      <point x="158" y="547" type="curve" smooth="yes"/>
      <point x="116" y="547"/>
      <point x="83" y="524"/>
      <point x="83" y="464" type="curve" smooth="yes"/>
      <point x="83" y="405"/>
      <point x="116" y="380"/>
    </contour>
    <contour>
      <point x="72" y="-185" type="line"/>
      <point x="190" y="-164"/>
      <point x="242" y="-56"/>
      <point x="242" y="61" type="curve" smooth="yes"/>
      <point x="242" y="130"/>
      <point x="202" y="153"/>
      <point x="159" y="153" type="curve" smooth="yes"/>
      <point x="117" y="153"/>
      <point x="84" y="130"/>
      <point x="84" y="70" type="curve" smooth="yes"/>
      <point x="84" y="11"/>
      <point x="117" y="-13"/>
      <point x="159" y="-13" type="curve" smooth="yes"/>
      <point x="161" y="-13"/>
      <point x="165" y="-13"/>
      <point x="167" y="-13" type="curve"/>
      <point x="155" y="-67"/>
      <point x="124" y="-106"/>
      <point x="72" y="-124" type="curve"/>
    </contour>
  </outline>
</glyph>
<glyph name="uniA4FD" format="2">
  <advance width="317"/>
  <unicode hex="A4FD"/>
  <outline>
    <contour>
      <point x="157" y="380" type="curve" smooth="yes"/>
      <point x="199" y="380"/>
      <point x="235" y="405"/>
      <point x="235" y="464" type="curve" smooth="yes"/>
      <point x="235" y="524"/>
      <point x="199" y="547"/>
      <point x="157" y="547" type="curve" smooth="yes"/>
      <point x="115" y="547"/>
      <point x="82" y="524"/>
      <point x="82" y="464" type="curve" smooth="yes"/>
      <point x="82" y="405"/>
      <point x="115" y="380"/>
    </contour>
    <contour>
      <point x="157" y="-10" type="curve" smooth="yes"/>
      <point x="199" y="-10"/>
      <point x="235" y="15"/>
      <point x="235" y="74" type="curve" smooth="yes"/>
      <point x="235" y="134"/>
      <point x="199" y="157"/>
      <point x="157" y="157" type="curve" smooth="yes"/>
      <point x="115" y="157"/>
      <point x="82" y="134"/>
      <point x="82" y="74" type="curve" smooth="yes"/>
      <point x="82" y="15"/>
      <point x="115" y="-10"/>
    </contour>
  </outline>
</glyph>
<glyph name="uniA4FE" format="2">
  <advance width="658"/>
  <unicode hex="A4FE"/>
  <outline>
    <contour>
      <point x="71" y="315" type="line"/>
      <point x="397" y="315" type="line"/>
      <point x="397" y="439" type="line"/>
      <point x="71" y="439" type="line"/>
    </contour>
    <contour>
      <point x="509" y="58" type="curve" smooth="yes"/>
      <point x="551" y="58"/>
      <point x="587" y="83"/>
      <point x="587" y="142" type="curve" smooth="yes"/>
      <point x="587" y="202"/>
      <point x="551" y="225"/>
      <point x="509" y="225" type="curve" smooth="yes"/>
      <point x="467" y="225"/>
      <point x="434" y="202"/>
      <point x="434" y="142" type="curve" smooth="yes"/>
      <point x="434" y="83"/>
      <point x="467" y="58"/>
    </contour>
  </outline>
</glyph>
<glyph name="uniA4FF" format="2">
  <advance width="562"/>
  <unicode hex="A4FF"/>
  <outline>
    <contour>
      <point x="71" y="337" type="line"/>
      <point x="491" y="337" type="line"/>
      <point x="491" y="461" type="line"/>
      <point x="71" y="461" type="line"/>
    </contour>
    <contour>
      <point x="71" y="98" type="line"/>
      <point x="491" y="98" type="line"/>
      <point x="491" y="222" type="line"/>
      <point x="71" y="222" type="line"/>
    </contour>
  </outline>
</glyph>
